<?xml version="1.0" encoding="utf-8"?>
<!-- Generator: Adobe Illustrator 20.0.0, SVG Export Plug-In . SVG Version: 6.00 Build 0)  -->
<svg version="1.1" id="Calque_1" xmlns="http://www.w3.org/2000/svg" xmlns:xlink="http://www.w3.org/1999/xlink" x="0px" y="0px"
	 viewBox="0 0 25 25" style="enable-background:new 0 0 25 25;" xml:space="preserve">
<style type="text/css">
	.st0{fill-rule:evenodd;clip-rule:evenodd;fill:#E53D26;}
	.st1{fill:#70C1B3;}
	.st2{fill:#E43D25;}
	.st3{fill:#E53D26;}
	.st4{fill:#EB605D;}
	.st5{fill:#A7E8AC;}
	.st6{fill:#EA5A53;}
</style>
<path class="st0" d="M12.5,0.2c3.8,0,6.8,3.1,6.8,6.8c0,3.1,1.5,4.7,1.9,7.3c0,0.2,0,0.4-0.2,0.6c-0.1,0.2-0.3,0.3-0.6,0.3h-16
	c-0.2,0-0.4-0.1-0.6-0.3c-0.1-0.2-0.2-0.4-0.2-0.6c0.5-2.6,1.9-4.2,1.9-7.3C5.7,3.3,8.7,0.2,12.5,0.2L12.5,0.2z M16.8,5
	C16.6,5,16.3,5,16,5c-1.9,0-3.4-1.4-3.5-2.8h0h0C12.4,3.6,10.9,5,9,5C8.7,5,8.4,5,8.2,5C7.9,5.6,7.7,6.3,7.7,7
	c0,2.6,2.1,4.8,4.8,4.8c2.6,0,4.8-2.1,4.8-4.8C17.3,6.3,17.1,5.6,16.8,5L16.8,5z M10.6,6.1c-0.5,0-1,0.4-1,1c0,0.5,0.4,1,1,1
	c0.5,0,1-0.4,1-1C11.5,6.5,11.1,6.1,10.6,6.1L10.6,6.1z M14.4,6.1c-0.5,0-1,0.4-1,1c0,0.5,0.4,1,1,1c0.5,0,1-0.4,1-1
	C15.4,6.5,14.9,6.1,14.4,6.1L14.4,6.1z M21.2,17.5c-0.7,4.2-4.4,7.3-8.7,7.3c-4.4,0-8-3.2-8.7-7.3c0-0.2,0-0.4,0.2-0.6
	c0.1-0.2,0.3-0.3,0.6-0.3h16c0.2,0,0.4,0.1,0.6,0.3C21.2,17,21.3,17.3,21.2,17.5z"/>
</svg>
