<?xml version="1.0" encoding="utf-8"?>
<!-- Generator: Adobe Illustrator 20.0.0, SVG Export Plug-In . SVG Version: 6.00 Build 0)  -->
<svg version="1.1" id="Calque_1" xmlns="http://www.w3.org/2000/svg" xmlns:xlink="http://www.w3.org/1999/xlink" x="0px" y="0px"
	 viewBox="0 0 25 25" style="enable-background:new 0 0 25 25;" xml:space="preserve">
<style type="text/css">
	.st0{fill-rule:evenodd;clip-rule:evenodd;fill:#E53D26;}
	.st1{fill:#70C1B3;}
	.st2{fill:#E43D25;}
	.st3{fill:#E53D26;}
	.st4{fill:#EB605D;}
	.st5{fill:#A7E8AC;}
	.st6{fill:#EA5A53;}
</style>
<path class="st1" d="M9.6,6.5c1,0.6,2.1,0.9,2.8,0.8c0,0,0,0,0.1,0c0,0,0,0,0.1,0c0.8,0.1,1.8-0.2,2.9-0.8c1.7-1,2.7-2.3,2.2-3.1
	c-0.4-0.7-2-0.6-3.6,0.3c0-1.8-0.7-3.3-1.6-3.3c-0.8,0-1.5,1.4-1.6,3.3c-1.6-0.8-3.2-1-3.6-0.3C6.9,4.1,7.9,5.5,9.6,6.5z"/>
<path class="st2" d="M12.5,8.1c-6.3,0-8.4,1.6-8.4,6.2c0,4.6,5.7,10.5,8.4,10.5s8.4-5.9,8.4-10.5C20.9,9.7,18.8,8.1,12.5,8.1z
	 M16.2,10.5c0.4,0,0.8,0.2,0.8,0.7c0,0.6-0.3,1.3-0.8,1.3c-0.4,0-0.8-0.7-0.8-1.3C15.4,10.6,15.8,10.5,16.2,10.5z M8.8,10.5
	c0.4,0,0.7,0.2,0.7,0.7c0,0.6-0.3,1.3-0.7,1.3c-0.4,0-0.7-0.7-0.7-1.3C8.1,10.6,8.4,10.5,8.8,10.5z M7.3,15.5
	c-0.4,0-0.7-0.7-0.7-1.3c0-0.6,0.3-0.7,0.7-0.7c0.4,0,0.7,0.2,0.7,0.7C8,14.8,7.7,15.5,7.3,15.5z M8.8,18.8C8.4,18.8,8,18,8,17.3
	c0-0.6,0.4-0.8,0.8-0.8c0.5,0,0.8,0.2,0.8,0.8C9.7,18,9.3,18.8,8.8,18.8z M10.7,21.7c-0.4,0-0.8-0.7-0.8-1.3c0-0.6,0.4-0.7,0.8-0.7
	c0.4,0,0.8,0.2,0.8,0.7C11.5,21,11.2,21.7,10.7,21.7z M10.7,15.6c-0.5,0-0.9-0.8-0.9-1.4c0-0.6,0.4-0.8,0.9-0.8
	c0.5,0,0.9,0.2,0.9,0.8C11.6,14.8,11.2,15.6,10.7,15.6z M12.6,18.8c-0.5,0-0.8-0.8-0.8-1.4c0-0.6,0.4-0.8,0.8-0.8
	c0.5,0,0.8,0.2,0.8,0.8C13.4,18,13,18.8,12.6,18.8z M12.5,12.6c-0.5,0-0.9-0.8-0.9-1.4c0-0.6,0.4-0.8,0.9-0.8c0.5,0,0.9,0.2,0.9,0.8
	C13.4,11.8,13,12.6,12.5,12.6z M14.4,21.7c-0.4,0-0.8-0.7-0.8-1.3c0-0.6,0.4-0.7,0.8-0.7c0.4,0,0.8,0.2,0.8,0.7
	C15.2,21,14.8,21.7,14.4,21.7z M14.4,15.6c-0.5,0-0.9-0.8-0.9-1.4c0-0.6,0.4-0.8,0.9-0.8c0.5,0,0.9,0.2,0.9,0.8
	C15.3,14.8,14.9,15.6,14.4,15.6z M16.2,18.8c-0.5,0-0.9-0.8-0.9-1.4c0-0.6,0.4-0.8,0.9-0.8c0.5,0,0.9,0.2,0.9,0.8
	C17.1,18,16.7,18.8,16.2,18.8z M17.9,15.5c-0.4,0-0.8-0.7-0.8-1.3c0-0.6,0.4-0.7,0.8-0.7c0.4,0,0.8,0.2,0.8,0.7
	C18.7,14.8,18.3,15.5,17.9,15.5z"/>
</svg>
