<?xml version="1.0" encoding="utf-8"?>
<!-- Generator: Adobe Illustrator 20.0.0, SVG Export Plug-In . SVG Version: 6.00 Build 0)  -->
<svg version="1.1" id="Calque_1" xmlns="http://www.w3.org/2000/svg" xmlns:xlink="http://www.w3.org/1999/xlink" x="0px" y="0px"
	 viewBox="0 0 25 25" style="enable-background:new 0 0 25 25;" xml:space="preserve">
<style type="text/css">
	.st0{fill-rule:evenodd;clip-rule:evenodd;fill:#E53D26;}
	.st1{fill:#70C1B3;}
	.st2{fill:#E43D25;}
	.st3{fill:#E53D26;}
	.st4{fill:#EB605D;}
	.st5{fill:#A7E8AC;}
	.st6{fill:#EA5A53;}
</style>
<path class="st6" d="M24.3,2.9c0.1-0.2,0-0.4-0.2-0.5l0,0c-0.5-0.3-1.7,0.1-2.2,0.5C21.7,3,21.5,3.1,21.3,3c-4.3-0.7-7,1.6-8.4,4.5
	c-0.3,0.5-0.7,0.9-1.2,0.9c-1.3,0-6.9,0-6.9,0C3.3,8.4,2,9.7,2,11.2V12c0,0.8,0.6,1.4,1.4,1.4h0c0.8,0,1.4-0.6,1.4-1.4v-1.8
	C4.8,10,5,9.8,5.2,9.8h0c0.2,0,0.4,0.2,0.4,0.4v9.5c-0.9-0.5-1.8-1-2.4-1.6c-0.6-0.5-1.5-0.5-2,0.1c-0.5,0.6-0.5,1.5,0.1,2
	C3.8,22.6,7.9,24,12.4,24c4.5,0,8.6-1.4,11.3-3.9c0.6-0.5,0.6-1.4,0.1-2c-0.5-0.6-1.4-0.6-2-0.1c-0.7,0.7-1.7,1.3-2.7,1.8V8.4v0
	c0-0.4,0.3-0.7,0.7-0.7h0c0.4,0,0.7,0.3,0.7,0.7v0.5c0,0.2,0,0.3,0.1,0.5l0.2,0.5c0.2,0.4,0.7,0.7,1.2,0.7h0c0.4,0,0.7-0.2,0.8-0.5
	l1.1-2.7C24,7,24,6.8,24,6.5c0-0.5-0.2-0.9-0.3-1.3c-0.1-0.2-0.3-0.7-0.2-0.9L24.3,2.9z M12.4,21.2c-1.6,0-3.2-0.2-4.6-0.6l0.5-1.8
	c0.1-0.2,0.2-0.5,0.4-0.7l0.5-0.5c0.4-0.4,0.6-0.9,0.6-1.5v0c0-0.3,0.2-0.5,0.5-0.5h4.6c0.4,0,0.8,0.3,0.8,0.7l1,4.4
	C15.4,21,13.9,21.2,12.4,21.2z"/>
</svg>
