<?xml version="1.0" encoding="utf-8"?>
<!-- Generator: Adobe Illustrator 20.0.0, SVG Export Plug-In . SVG Version: 6.00 Build 0)  -->
<svg version="1.1" id="Calque_1" xmlns="http://www.w3.org/2000/svg" xmlns:xlink="http://www.w3.org/1999/xlink" x="0px" y="0px"
	 viewBox="0 0 25 25" style="enable-background:new 0 0 25 25;" xml:space="preserve">
<style type="text/css">
	.st0{fill:#E53D26;}
	.st1{fill:#EB605D;}
</style>
<path class="st0" d="M3.3,13.5h1.9c0.4,0,0.8-0.3,0.8-0.8v-1.2c0-0.4,0.3-0.8,0.7-0.8h0.6c0.4,0,0.8,0.4,0.8,0.8v1.2
	c0,0.4,0.3,0.8,0.7,0.8h1.9c0.4,0,0.8-0.3,0.8-0.8v-1.2c0-0.4,0.3-0.8,0.7-0.8h0.6c0.4,0,0.8,0.3,0.8,0.8v1.2c0,0.4,0.3,0.8,0.7,0.8
	h1.9c0.4,0,0.8-0.3,0.8-0.8v-1.3c0-0.4,0.3-0.8,0.7-0.8h0.6c0.4,0,0.8,0.3,0.8,0.8v1.3c0,0.4,0.3,0.8,0.8,0.8h1.8
	c0.5,0,0.8-0.4,0.8-0.9c-0.7-6.2-6-12.3-10-12.3s-9.2,6.1-10,12.3C2.5,13.1,2.8,13.5,3.3,13.5z M13.5,5.5C13.1,5.8,12.8,6,12.2,6
	c-1.2,0-1.9-0.8-1.9-1.8c0-1.3,0.9-2,2.1-2c1.7,0,2.2,1.3,2.2,2.6c0,2.4-0.9,3.2-2.4,3.2c-1,0-1.6-0.5-1.6-1c0-0.3,0.2-0.5,0.5-0.5
	c0.5,0,0.6,0.7,1.2,0.7c0.8,0,1.1-0.8,1.1-1.5V5.5z M12.5,3.1c-0.6,0-0.9,0.4-0.9,1c0,0.7,0.4,1,0.9,1c0.5,0,0.9-0.4,0.9-1
	C13.4,3.5,13,3.1,12.5,3.1z"/>
<path class="st1" d="M21.7,14.9H3.3c-0.5,0-0.8,0.4-0.8,0.9c0.7,5.7,4.9,8.8,9.9,8.8c5.1,0,9.3-3.2,9.9-8.8
	C22.5,15.3,22.1,14.9,21.7,14.9z M14.4,20.4h-3.8c-0.5,0-0.8-0.6-0.5-1l1.9-2.5c0.2-0.3,0.7-0.3,1,0l1.9,2.5
	C15.2,19.8,14.9,20.4,14.4,20.4z"/>
</svg>
