<?xml version="1.0" encoding="utf-8"?>
<!-- Generator: Adobe Illustrator 20.0.0, SVG Export Plug-In . SVG Version: 6.00 Build 0)  -->
<svg version="1.1" id="Calque_1" xmlns="http://www.w3.org/2000/svg" xmlns:xlink="http://www.w3.org/1999/xlink" x="0px" y="0px"
	 viewBox="0 0 25 25" style="enable-background:new 0 0 25 25;" xml:space="preserve">
<style type="text/css">
	.st0{fill-rule:evenodd;clip-rule:evenodd;fill:#E53D26;}
	.st1{fill:#70C1B3;}
	.st2{fill:#E43D25;}
	.st3{fill:#E53D26;}
	.st4{fill:#EB605D;}
	.st5{fill:#A7E8AC;}
	.st6{fill:#EA5A53;}
</style>
<path class="st5" d="M1.9,16.6c-1.8,1.8-1.8,4.7,0,6.5v0c1.8,1.8,4.7,1.8,6.5,0l2.7-2.7L4.5,14L1.9,16.6z"/>
<path class="st1" d="M5.7,12.8l6.5,6.5l7.1-7.1l-6.5-6.5L5.7,12.8z M9.3,13.3c-0.3,0.3-0.9,0.3-1.2,0c-0.3-0.3-0.3-0.9,0-1.2
	c0.3-0.3,0.9-0.3,1.2,0C9.6,12.5,9.6,13,9.3,13.3z M11.1,15.1c-0.3,0.3-0.9,0.3-1.2,0c-0.3-0.3-0.3-0.9,0-1.2c0.3-0.3,0.9-0.3,1.2,0
	C11.4,14.3,11.4,14.8,11.1,15.1z M10.2,11.3c-0.3-0.3-0.3-0.9,0-1.2c0.3-0.3,0.9-0.3,1.2,0c0.3,0.3,0.3,0.9,0,1.2
	C11,11.6,10.5,11.6,10.2,11.3z M12.8,16.9c-0.3,0.3-0.9,0.3-1.2,0c-0.3-0.3-0.3-0.9,0-1.2c0.3-0.3,0.9-0.3,1.2,0
	C13.2,16,13.2,16.6,12.8,16.9z M13.1,13.1c-0.3,0.3-0.9,0.3-1.2,0c-0.3-0.3-0.3-0.9,0-1.2c0.3-0.3,0.9-0.3,1.2,0
	C13.4,12.2,13.4,12.7,13.1,13.1z M15.7,11.6c0.3-0.3,0.9-0.3,1.2,0c0.3,0.3,0.3,0.9,0,1.2c-0.3,0.3-0.9,0.3-1.2,0
	C15.4,12.5,15.4,11.9,15.7,11.6z M14,9.8c0.3-0.3,0.9-0.3,1.2,0c0.3,0.3,0.3,0.9,0,1.2c-0.3,0.3-0.9,0.3-1.2,0
	C13.7,10.7,13.7,10.2,14,9.8z M14.9,13.7c0.3,0.3,0.3,0.9,0,1.2c-0.3,0.3-0.9,0.3-1.2,0s-0.3-0.9,0-1.2C14,13.3,14.6,13.3,14.9,13.7
	z M13.4,8.1c0.3,0.3,0.3,0.9,0,1.2c-0.3,0.3-0.9,0.3-1.2,0c-0.3-0.3-0.3-0.9,0-1.2C12.5,7.7,13.1,7.7,13.4,8.1z"/>
<path class="st5" d="M16.6,1.9L14,4.5l6.5,6.5l2.7-2.7c1.8-1.8,1.8-4.7,0-6.5C21.3,0.1,18.4,0.1,16.6,1.9z"/>
</svg>
