<svg width="440" height="145" xmlns="http://www.w3.org/2000/svg">
 <metadata id="metadata7">image/svg+xml</metadata>
 <g>
  <title>background</title>
 </g>
 <g>
  <title>Layer 1</title>
  <text font-style="normal" font-weight="300" font-size="40px" font-family="'Open Sans'" fill="#080808" stroke-width="1px" id="text4136" y="74.50507" x="44.27672" xml:space="preserve">
   <tspan font-style="normal" font-weight="600" font-size="32.5px" font-family="'Open Sans'" text-anchor="start" fill="#030303" y="74.50507" x="44.27672" id="tspan4138">Sages Femmes Libérales</tspan>
  </text>
  <text font-style="normal" font-weight="300" font-size="35px" font-family="'Open Sans'" fill="#000000" stroke="#000000" stroke-width="1px" stroke-opacity="0.577889" id="text4140" y="132.11401" x="88.83519" xml:space="preserve">
   <tspan font-style="normal" font-weight="normal" font-size="35px" font-family="Open Sans" fill="#1f1f1f" stroke-opacity="0.577889" dx="0" y="132.11401" x="88.83519" id="tspan4142">Haute-Normandie</tspan>
  </text>
  <path fill="#5b6b3e" stroke-width="2.303686" stroke-linecap="round" stroke-linejoin="round" stroke-miterlimit="4" stroke-dashoffset="0" id="path4192" d="m16.39399,19.87089c-11.24319,21.22493 -14.4465,40.10854 -14.90816,62.97188c0.64638,21.85556 9.71765,50.39605 21.1866,68.61697c0,0 -12.47253,-49.06806 -11.79825,-73.95213c0.85648,-31.60839 5.51981,-57.63672 5.51981,-57.63672zm401.06014,-3.17203c0,0 12.0071,52.82521 11.76881,74.70133c-0.29567,27.14494 -9.22399,58.9319 -9.22399,58.9319c9.72235,-18.43627 14.08683,-23.90998 17.37061,-49.63932c1.24631,-26.59864 -6.5103,-58.12831 -19.91543,-83.99391z"/>
  <path fill="none" fill-rule="evenodd" stroke="#4d5934" stroke-width="3.025" stroke-linecap="round" stroke-miterlimit="4" stroke-opacity="0.922156" id="path4144" d="m22.94399,93.26939c394.01678,0 394.01678,0 394.01678,0"/>
 </g>
</svg>
