<svg xmlns="http://www.w3.org/2000/svg" height="209.889" width="384.796"><defs><clipPath id="a" clipPathUnits="userSpaceOnUse"><path d="M0 157.417h288.597V0H0z"/></clipPath></defs><g clip-path="url(#a)" transform="matrix(1.33333 0 0 -1.33333 0 209.89)"><path d="M110.78 56.244h3.057l-1.287 3.333a6.077 6.077 0 00-.245.771 13.54 13.54 0 00-.123-.43 5.302 5.302 0 00-.117-.347zm5.366-3.04h-.857a.372.372 0 00-.24.073.458.458 0 00-.137.19l-.767 1.977h-3.675l-.766-1.978a.442.442 0 00-.137-.183.368.368 0 00-.24-.08h-.858l3.276 8.191h1.126zM120.337 58.04a.225.225 0 00-.212-.126.404.404 0 00-.194.062 4.313 4.313 0 01-.266.14 2.41 2.41 0 01-.374.143 1.78 1.78 0 01-.515.066c-.171 0-.326-.022-.462-.066a1.112 1.112 0 01-.352-.18.733.733 0 01-.301-.594c0-.149.043-.273.129-.372.086-.099.199-.185.34-.257.142-.072.302-.136.48-.192.18-.055.364-.114.552-.177a7.57 7.57 0 00.552-.209c.179-.076.339-.17.48-.285.141-.115.254-.255.34-.42.086-.166.129-.366.129-.598 0-.267-.048-.514-.143-.74a1.621 1.621 0 00-.423-.589 2.048 2.048 0 00-.686-.392 2.822 2.822 0 00-.937-.142 2.91 2.91 0 00-1.098.197 2.77 2.77 0 00-.835.506l.24.39a.362.362 0 00.109.113c.042.026.097.04.166.04.068 0 .14-.027.217-.08.076-.053.168-.113.277-.177.109-.065.24-.124.394-.178.155-.053.348-.08.581-.08a1.6 1.6 0 01.52.077c.148.052.272.121.372.21a.837.837 0 01.22.302.933.933 0 01.071.366c0 .16-.043.292-.129.397a1.07 1.07 0 01-.34.27c-.14.073-.301.138-.483.193-.181.055-.365.113-.554.174a6.128 6.128 0 00-.554.21 1.958 1.958 0 00-.484.294c-.14.118-.254.264-.34.437a1.41 1.41 0 00-.129.632 1.568 1.568 0 00.538 1.175c.175.154.39.276.646.368.255.091.547.137.875.137.381 0 .723-.06 1.025-.18a2.44 2.44 0 00.787-.494zM125.298 58.04a.223.223 0 00-.211-.126.4.4 0 00-.194.062 4.313 4.313 0 01-.266.14 2.425 2.425 0 01-.375.143 1.775 1.775 0 01-.515.066c-.17 0-.325-.022-.462-.066a1.134 1.134 0 01-.352-.18.804.804 0 01-.223-.266.72.72 0 01-.077-.328c0-.149.043-.273.129-.372.085-.099.199-.185.34-.257.14-.072.3-.136.48-.192.179-.055.363-.114.552-.177.189-.063.372-.133.55-.209.18-.076.34-.17.48-.285.142-.115.256-.255.34-.42.087-.166.13-.366.13-.598a1.91 1.91 0 00-.142-.74 1.633 1.633 0 00-.423-.589 2.062 2.062 0 00-.687-.392 2.822 2.822 0 00-.937-.142c-.405 0-.77.065-1.098.197-.327.131-.605.3-.834.506l.24.39a.362.362 0 00.109.113c.042.026.096.04.165.04a.389.389 0 00.218-.08c.076-.053.168-.113.277-.177.108-.065.24-.124.394-.178a1.81 1.81 0 01.58-.08c.199 0 .372.026.52.077.149.052.273.121.372.21a.825.825 0 01.22.302.933.933 0 01.072.366c0 .16-.043.292-.13.397a1.081 1.081 0 01-.34.27 2.776 2.776 0 01-.482.193 33.84 33.84 0 00-.555.174 6.363 6.363 0 00-.554.21 1.952 1.952 0 00-.483.294 1.341 1.341 0 00-.341.437 1.424 1.424 0 00-.128.632 1.55 1.55 0 00.537 1.175c.175.154.39.276.646.368a2.6 2.6 0 00.875.137c.38 0 .723-.06 1.026-.18.303-.12.565-.285.786-.494zM129.288 53.918c.572 0 1 .192 1.281.575.281.383.423.917.423 1.603 0 .69-.142 1.227-.423 1.612-.282.385-.709.578-1.28.578-.29 0-.542-.05-.755-.15a1.408 1.408 0 01-.535-.428 1.887 1.887 0 01-.319-.688 3.63 3.63 0 01-.107-.924c0-.343.035-.65.107-.92.07-.271.176-.5.32-.683a1.42 1.42 0 01.534-.426c.213-.1.465-.15.754-.15m0 5.169c.424 0 .806-.071 1.146-.211.341-.142.631-.342.87-.601.238-.26.421-.572.548-.94a3.76 3.76 0 00.192-1.232c0-.457-.065-.87-.192-1.235a2.648 2.648 0 00-.548-.937 2.388 2.388 0 00-.87-.598 3.004 3.004 0 00-1.146-.208c-.423 0-.805.069-1.146.208a2.413 2.413 0 00-.872.598c-.24.259-.424.57-.554.937a3.7 3.7 0 00-.195 1.235c0 .453.066.864.195 1.232.13.368.314.68.554.94.241.259.531.459.872.6.341.14.723.212 1.146.212M137.251 57.965a.453.453 0 00-.091-.097.218.218 0 00-.132-.034.32.32 0 00-.185.071c-.068.048-.152.1-.255.157-.103.057-.228.11-.374.157a1.756 1.756 0 01-.54.072c-.282 0-.532-.051-.749-.152a1.436 1.436 0 01-.546-.437 1.971 1.971 0 01-.332-.692 3.437 3.437 0 01-.111-.908c0-.351.04-.663.12-.935.08-.273.192-.501.337-.686.145-.185.321-.326.529-.423.208-.097.441-.146.7-.146.248 0 .451.03.611.089.161.059.294.125.401.197.106.072.194.138.263.197a.318.318 0 00.206.089c.087 0 .152-.033.194-.098l.286-.371a2.201 2.201 0 00-.943-.677 3.324 3.324 0 00-1.196-.215c-.361 0-.698.067-1.008.2a2.304 2.304 0 00-.809.58 2.743 2.743 0 00-.54.935c-.132.37-.197.791-.197 1.264 0 .43.059.828.179 1.194s.296.681.527.946c.23.265.515.472.854.62.339.149.728.224 1.166.224.405 0 .763-.066 1.075-.198a2.58 2.58 0 00.829-.557zM139.772 53.203h-1.018v5.791h1.018zm.229 7.609a.638.638 0 00-.061-.278.803.803 0 00-.16-.228.722.722 0 00-.511-.215.682.682 0 00-.278.058.756.756 0 00-.385.385.665.665 0 00-.057.278.735.735 0 00.442.675.698.698 0 00.558 0 .778.778 0 00.391-.392.673.673 0 00.061-.283M143.179 53.826a1.956 1.956 0 01.912.208c.13.067.257.148.377.244.12.095.237.203.352.325v1.195a6.86 6.86 0 01-1.195-.089 3.306 3.306 0 01-.8-.233c-.207-.096-.356-.209-.45-.339a.734.734 0 01-.14-.437.98.98 0 01.075-.397.757.757 0 01.2-.273.8.8 0 01.298-.155c.114-.033.237-.049.37-.049m2.642-.623h-.452a.535.535 0 00-.24.046c-.06.03-.1.095-.12.194l-.114.537a6.686 6.686 0 00-.445-.368 2.4 2.4 0 00-.97-.443 2.942 2.942 0 00-.603-.057c-.224 0-.435.031-.632.094a1.352 1.352 0 00-.857.763 1.673 1.673 0 00-.13.686c0 .23.065.45.19.662.126.212.329.401.609.565.28.164.646.3 1.1.404.454.105 1.008.158 1.664.158v.455c0 .452-.097.794-.29 1.026-.192.233-.476.348-.854.348-.247 0-.456-.03-.626-.094a2.364 2.364 0 01-.44-.21 8.264 8.264 0 01-.32-.213.46.46 0 00-.265-.094.307.307 0 00-.181.054.425.425 0 00-.123.134l-.183.326c.32.31.665.54 1.036.692.369.152.779.23 1.228.23.324 0 .61-.055.863-.162.252-.106.463-.255.635-.445.17-.19.3-.42.389-.692.088-.27.13-.568.13-.892zM149.118 53.112c-.457 0-.809.127-1.055.383-.246.255-.369.623-.369 1.103v3.544h-.697a.228.228 0 00-.154.054c-.042.037-.063.093-.063.169v.406l.95.12.233 1.789a.218.218 0 00.075.14.23.23 0 00.16.055h.514V58.88h1.658v-.738h-1.658v-3.475c0-.244.06-.425.177-.543a.623.623 0 01.458-.178c.106 0 .2.015.277.043.078.029.145.06.203.095.057.034.105.066.145.094a.193.193 0 00.106.043c.054 0 .102-.033.144-.097l.296-.486a1.87 1.87 0 00-.634-.386 2.138 2.138 0 00-.766-.14M152.759 53.203h-1.018v5.791h1.018zm.229 7.609a.652.652 0 00-.06-.278.824.824 0 00-.16-.228.738.738 0 00-.512-.215.674.674 0 00-.277.058.748.748 0 00-.386.385.72.72 0 00.157.795.769.769 0 00.229.158.694.694 0 00.557 0 .758.758 0 00.452-.675M156.899 53.918c.57 0 .998.192 1.279.575.283.383.424.917.424 1.603 0 .69-.141 1.227-.424 1.612-.281.385-.71.578-1.28.578-.29 0-.541-.05-.754-.15a1.415 1.415 0 01-.535-.428 1.887 1.887 0 01-.32-.688 3.63 3.63 0 01-.106-.924c0-.343.035-.65.107-.92.07-.271.176-.5.319-.683.144-.185.32-.327.535-.426.213-.1.464-.15.755-.15m0 5.169c.422 0 .805-.071 1.145-.211.34-.142.63-.342.869-.601.238-.26.422-.572.549-.94.128-.368.19-.78.19-1.232 0-.457-.062-.87-.19-1.235a2.65 2.65 0 00-.55-.937 2.384 2.384 0 00-.868-.598 3.006 3.006 0 00-1.145-.208c-.424 0-.806.069-1.146.208a2.408 2.408 0 00-.873.598c-.24.259-.424.57-.554.937a3.7 3.7 0 00-.195 1.235c0 .453.066.864.195 1.232.13.368.314.68.554.94.24.259.53.459.873.6.34.14.722.212 1.146.212M160.911 53.203v5.791h.605c.145 0 .237-.07.275-.212l.08-.629c.252.28.532.504.843.675.31.171.67.257 1.078.257.316 0 .596-.052.837-.157.242-.105.444-.253.606-.446.162-.193.285-.424.368-.695a3.01 3.01 0 00.126-.897v-3.687h-1.017v3.687c0 .438-.1.778-.3 1.021-.2.241-.506.362-.918.362-.3 0-.582-.072-.843-.217a2.77 2.77 0 01-.722-.588v-4.265zM171.577 53.947c.331 0 .622.075.871.228.25.153.48.368.69.647v2.8c-.187.252-.392.429-.615.53-.223.1-.469.15-.74.15-.542 0-.957-.192-1.247-.578-.289-.384-.434-.933-.434-1.646 0-.377.033-.7.097-.969.065-.268.16-.49.286-.663.125-.173.28-.3.463-.38.183-.08.393-.12.63-.12m1.971-.743c-.145 0-.237.07-.275.211l-.09.703a3.073 3.073 0 00-.85-.723 2.177 2.177 0 00-1.095-.27c-.33 0-.632.063-.902.19a1.88 1.88 0 00-.693.563c-.19.248-.337.557-.439.926-.104.37-.155.796-.155 1.276 0 .426.057.823.172 1.191.114.368.28.687.494.958.215.27.477.483.786.637.308.154.66.231 1.052.231.354 0 .657-.06.91-.18.251-.12.475-.287.674-.505v3.212h1.017v-8.42zM178.18 58.337c-.491 0-.878-.142-1.16-.426-.282-.284-.457-.677-.526-1.18h3.15c0 .236-.032.452-.098.648a1.44 1.44 0 01-.285.509 1.275 1.275 0 01-.461.332 1.555 1.555 0 01-.62.117m-.022.749c.346 0 .667-.058.959-.174a2.16 2.16 0 001.26-1.315c.12-.322.18-.69.18-1.101 0-.16-.016-.266-.05-.32-.034-.053-.1-.08-.194-.08h-3.854c.008-.365.058-.684.15-.954.09-.271.217-.497.377-.678.16-.181.35-.316.57-.406.223-.09.47-.134.744-.134.256 0 .476.029.66.089.186.058.344.122.478.19.134.07.245.134.335.193a.439.439 0 00.23.088.226.226 0 00.196-.097l.285-.372a1.963 1.963 0 00-.451-.397 2.786 2.786 0 00-.564-.277 3.577 3.577 0 00-.62-.163 3.808 3.808 0 00-.635-.054c-.4 0-.768.067-1.105.203a2.42 2.42 0 00-.875.594 2.722 2.722 0 00-.575.969 3.945 3.945 0 00-.206 1.326c0 .404.063.782.186 1.132.124.35.303.655.535.912.233.257.516.459.852.606.335.146.713.22 1.132.22M185.17 58.04a.225.225 0 00-.211-.126.404.404 0 00-.194.062 4.313 4.313 0 01-.266.14 2.386 2.386 0 01-.375.143 1.768 1.768 0 01-.514.066c-.171 0-.326-.022-.462-.066a1.112 1.112 0 01-.352-.18.733.733 0 01-.301-.594c0-.149.043-.273.129-.372.086-.099.199-.185.34-.257.142-.072.3-.136.48-.192.179-.055.364-.114.552-.177a7.57 7.57 0 00.552-.209c.179-.076.339-.17.479-.285.142-.115.255-.255.34-.42a1.3 1.3 0 00.129-.598c0-.267-.047-.514-.142-.74a1.633 1.633 0 00-.423-.589 2.053 2.053 0 00-.687-.392 2.822 2.822 0 00-.937-.142c-.404 0-.77.065-1.097.197a2.77 2.77 0 00-.835.506l.24.39a.362.362 0 00.109.113c.042.026.097.04.166.04.068 0 .14-.027.217-.08.076-.053.168-.113.277-.177.108-.065.24-.124.394-.178.155-.053.348-.08.58-.08a1.6 1.6 0 01.52.077c.149.052.273.121.372.21.1.087.173.188.22.302a.951.951 0 01.072.366c0 .16-.043.292-.13.397a1.081 1.081 0 01-.34.27 2.776 2.776 0 01-.482.193c-.181.055-.365.113-.555.174a6.223 6.223 0 00-.553.21 1.94 1.94 0 00-.484.294c-.14.118-.255.264-.34.437a1.41 1.41 0 00-.13.632 1.55 1.55 0 00.539 1.175c.175.154.39.276.646.368.255.091.547.137.874.137.38 0 .724-.06 1.026-.18.303-.12.565-.285.787-.494zM193.379 60.114a.43.43 0 00-.108-.128.24.24 0 00-.149-.043c-.065 0-.14.032-.226.097a3.717 3.717 0 01-.326.214c-.131.078-.29.15-.474.214a2.037 2.037 0 01-.672.098c-.248 0-.467-.034-.657-.1a1.411 1.411 0 01-.478-.272 1.103 1.103 0 01-.288-.403 1.278 1.278 0 01-.098-.5c0-.229.057-.419.169-.569a1.47 1.47 0 01.446-.386c.185-.107.394-.199.629-.277l.72-.243c.245-.084.486-.178.72-.283.234-.105.444-.237.629-.397.184-.16.334-.356.446-.589.113-.232.168-.518.168-.857 0-.359-.06-.695-.182-1.01a2.34 2.34 0 00-.535-.82 2.513 2.513 0 00-.863-.549 3.18 3.18 0 00-1.163-.199c-.53 0-1.013.096-1.449.288a3.401 3.401 0 00-1.117.78l.319.526a.43.43 0 00.111.106.26.26 0 00.147.043c.08 0 .171-.043.274-.129.103-.086.232-.18.386-.283.154-.102.341-.197.559-.283.22-.086.488-.128.804-.128.263 0 .497.036.703.108.206.073.38.175.523.306.143.132.253.29.329.472.076.183.114.386.114.612 0 .247-.056.45-.169.608-.112.158-.26.291-.442.397a3.1 3.1 0 01-.626.272l-.721.23a7.333 7.333 0 00-.72.27 2.372 2.372 0 00-.626.4 1.833 1.833 0 00-.443.615c-.112.246-.169.55-.169.912a2.18 2.18 0 00.658 1.56c.213.21.477.378.791.503a2.9 2.9 0 001.084.19 3.49 3.49 0 001.252-.218c.377-.145.706-.355.989-.629zM196.694 53.826a1.967 1.967 0 011.289.452c.12.095.237.203.352.325v1.195a6.86 6.86 0 01-1.195-.089 3.306 3.306 0 01-.8-.233c-.206-.096-.356-.209-.449-.339a.734.734 0 01-.14-.437c0-.153.025-.286.075-.397a.754.754 0 01.2-.273.8.8 0 01.297-.155c.114-.033.238-.049.371-.049m2.642-.623h-.453a.537.537 0 00-.24.046c-.06.03-.1.095-.12.194l-.114.537a6.686 6.686 0 00-.445-.368 2.392 2.392 0 00-.969-.443 2.959 2.959 0 00-.604-.057c-.224 0-.435.031-.632.094a1.352 1.352 0 00-.857.763 1.673 1.673 0 00-.128.686c0 .23.063.45.19.662.124.212.327.401.607.565.28.164.646.3 1.101.404.453.105 1.007.158 1.663.158v.455c0 .452-.096.794-.288 1.026-.193.233-.478.348-.855.348-.248 0-.457-.03-.626-.094a2.375 2.375 0 01-.44-.21 9.111 9.111 0 01-.32-.213.458.458 0 00-.266-.094.304.304 0 00-.18.054.403.403 0 00-.123.134l-.184.326c.321.31.665.54 1.036.692.37.152.78.23 1.228.23.324 0 .612-.055.863-.162.252-.106.463-.255.635-.445s.301-.42.39-.692c.087-.27.131-.568.131-.892zM202.828 56.033c.205 0 .388.029.546.086.158.057.29.137.397.24a.98.98 0 01.24.368c.053.143.08.3.08.472 0 .355-.108.637-.323.846-.215.21-.529.315-.94.315-.408 0-.72-.105-.935-.315-.215-.21-.323-.491-.323-.846 0-.171.028-.33.083-.472.055-.142.136-.265.243-.368.107-.103.238-.183.394-.24.156-.057.336-.086.538-.086m1.806-3.124c0 .148-.04.267-.119.356a.773.773 0 01-.327.207 2.352 2.352 0 01-.474.108 4.45 4.45 0 01-.567.035h-.605c-.206 0-.402.026-.589.077a1.652 1.652 0 01-.528-.378.76.76 0 01-.203-.532c0-.13.033-.251.1-.364a.87.87 0 01.305-.292c.138-.082.31-.147.517-.195.208-.047.454-.071.735-.071.274 0 .52.026.737.076.218.05.401.122.552.216.15.093.266.204.347.332.08.128.12.27.12.425m-1.807 6.182c.251 0 .486-.027.706-.082.22-.056.418-.137.597-.244h1.572v-.377c0-.126-.08-.206-.24-.24l-.657-.092c.13-.247.194-.523.194-.828a1.79 1.79 0 00-.163-.77 1.751 1.751 0 00-.45-.591 2.013 2.013 0 00-.688-.377 2.748 2.748 0 00-.87-.131 2.93 2.93 0 00-.768.097.987.987 0 01-.277-.255.47.47 0 01-.094-.266c0-.141.055-.25.166-.321.111-.073.257-.125.44-.157s.39-.048.623-.048h.712c.242 0 .48-.021.712-.063.232-.042.44-.112.623-.21.182-.095.33-.228.44-.398.11-.17.165-.39.165-.66 0-.25-.06-.493-.185-.73a1.975 1.975 0 00-.535-.627 2.742 2.742 0 00-.85-.44 3.647 3.647 0 00-1.139-.164c-.423 0-.794.042-1.112.126a2.595 2.595 0 00-.79.337 1.47 1.47 0 00-.473.49 1.16 1.16 0 00-.157.58c0 .287.09.53.271.73.181.2.43.36.747.478a1.017 1.017 0 00-.392.305c-.098.128-.147.298-.147.51 0 .085.016.172.046.26.031.09.077.179.141.266a1.453 1.453 0 00.551.462 1.814 1.814 0 00-.67.638 1.744 1.744 0 00-.244.929c0 .282.054.538.163.768.108.23.26.427.454.589.194.162.426.287.694.375.27.088.564.13.884.13M209.036 58.337c-.49 0-.878-.142-1.16-.426-.282-.284-.457-.677-.526-1.18h3.15c0 .236-.032.452-.098.648a1.44 1.44 0 01-.285.509 1.275 1.275 0 01-.46.332 1.555 1.555 0 01-.62.117m-.023.749c.346 0 .667-.058.96-.174a2.16 2.16 0 001.26-1.315c.12-.322.18-.69.18-1.101 0-.16-.017-.266-.05-.32-.035-.053-.1-.08-.195-.08h-3.854c.008-.365.058-.684.15-.954.091-.271.217-.497.377-.678.16-.181.35-.316.571-.406.222-.09.47-.134.743-.134.256 0 .476.029.66.089.186.058.344.122.478.19.134.07.245.134.335.193a.439.439 0 00.231.088.226.226 0 00.195-.097l.285-.372a1.963 1.963 0 00-.45-.397 2.786 2.786 0 00-.565-.277 3.577 3.577 0 00-.62-.163 3.808 3.808 0 00-.635-.054c-.399 0-.768.067-1.105.203a2.42 2.42 0 00-.875.594 2.722 2.722 0 00-.575.969 3.945 3.945 0 00-.206 1.326c0 .404.063.782.186 1.132.124.35.303.655.535.912.233.257.516.459.852.606.335.146.713.22 1.132.22M216.027 58.04a.225.225 0 00-.212-.126.404.404 0 00-.194.062 4.313 4.313 0 01-.266.14 2.386 2.386 0 01-.375.143 1.768 1.768 0 01-.514.066c-.17 0-.326-.022-.462-.066a1.112 1.112 0 01-.352-.18.733.733 0 01-.301-.594c0-.149.043-.273.13-.372.085-.099.198-.185.34-.257.141-.072.3-.136.48-.192.178-.055.363-.114.551-.177a7.57 7.57 0 00.552-.209c.18-.076.34-.17.48-.285.141-.115.254-.255.34-.42a1.3 1.3 0 00.128-.598c0-.267-.047-.514-.142-.74a1.633 1.633 0 00-.423-.589 2.053 2.053 0 00-.687-.392 2.822 2.822 0 00-.937-.142c-.404 0-.77.065-1.097.197a2.77 2.77 0 00-.835.506l.24.39a.362.362 0 00.11.113c.041.026.096.04.165.04.068 0 .14-.027.217-.08.076-.053.168-.113.277-.177.108-.065.24-.124.394-.178.155-.053.348-.08.581-.08a1.6 1.6 0 01.52.077c.148.052.272.121.371.21.1.087.173.188.221.302a.951.951 0 01.071.366c0 .16-.043.292-.129.397a1.081 1.081 0 01-.34.27 2.776 2.776 0 01-.483.193c-.18.055-.365.113-.555.174a6.223 6.223 0 00-.553.21 1.94 1.94 0 00-.484.294c-.14.118-.255.264-.34.437a1.41 1.41 0 00-.129.632 1.55 1.55 0 00.538 1.175c.175.154.39.276.646.368.255.091.547.137.874.137.381 0 .724-.06 1.026-.18.303-.12.565-.285.787-.494zM217.41 57.062h2.824v-.863h-2.824zM226.848 61.395v-.903h-3.933v-2.864h3.362v-.903h-3.362v-3.521H221.8v8.19zM230.026 58.337c-.49 0-.878-.142-1.16-.426-.282-.284-.457-.677-.526-1.18h3.15c0 .236-.032.452-.098.648a1.44 1.44 0 01-.285.509 1.275 1.275 0 01-.46.332 1.555 1.555 0 01-.62.117m-.023.749c.346 0 .667-.058.96-.174a2.16 2.16 0 001.26-1.315c.12-.322.18-.69.18-1.101 0-.16-.017-.266-.05-.32-.035-.053-.1-.08-.195-.08h-3.854c.008-.365.058-.684.15-.954.091-.271.217-.497.377-.678.16-.181.35-.316.571-.406.222-.09.47-.134.743-.134.256 0 .476.029.66.089.186.058.344.122.478.19.134.07.245.134.335.193a.439.439 0 00.231.088.226.226 0 00.195-.097l.285-.372a1.963 1.963 0 00-.45-.397 2.786 2.786 0 00-.565-.277 3.577 3.577 0 00-.62-.163 3.808 3.808 0 00-.635-.054c-.399 0-.768.067-1.105.203a2.42 2.42 0 00-.875.594 2.722 2.722 0 00-.575.969 3.945 3.945 0 00-.206 1.326c0 .404.063.782.186 1.132.124.35.303.655.535.912.233.257.516.459.852.606.335.146.713.22 1.132.22M233.702 53.203v5.791h.605c.145 0 .237-.07.275-.212l.074-.594c.214.263.453.478.718.646.265.167.572.251.923.251.392 0 .71-.109.952-.326.242-.217.416-.51.522-.88a1.825 1.825 0 001.285 1.137c.184.046.372.07.562.07.305 0 .576-.05.814-.147.24-.097.441-.239.607-.425a1.92 1.92 0 00.38-.689c.088-.273.132-.584.132-.935v-3.687h-1.018v3.687c0 .454-.1.797-.298 1.032-.198.234-.485.351-.863.351-.167 0-.326-.029-.477-.088a1.145 1.145 0 01-.669-.692 1.664 1.664 0 01-.1-.603v-3.687h-1.018v3.687c0 .465-.093.812-.279 1.041-.188.228-.46.342-.818.342-.25 0-.485-.067-.7-.202a2.313 2.313 0 01-.59-.552v-4.316zM243.089 53.203v5.791h.605c.145 0 .237-.07.275-.212l.074-.594c.214.263.453.478.718.646.265.167.572.251.923.251.392 0 .71-.109.952-.326.242-.217.416-.51.522-.88a1.825 1.825 0 001.285 1.137c.184.046.372.07.562.07.305 0 .576-.05.814-.147.239-.097.44-.239.607-.425a1.92 1.92 0 00.38-.689c.088-.273.132-.584.132-.935v-3.687h-1.018v3.687c0 .454-.1.797-.298 1.032-.198.234-.485.351-.863.351-.167 0-.326-.029-.477-.088a1.145 1.145 0 01-.67-.692 1.664 1.664 0 01-.1-.603v-3.687h-1.017v3.687c0 .465-.093.812-.28 1.041-.187.228-.46.342-.817.342-.251 0-.485-.067-.701-.202a2.313 2.313 0 01-.59-.552v-4.316zM254.79 58.337c-.492 0-.879-.142-1.16-.426-.283-.284-.458-.677-.527-1.18h3.15c0 .236-.032.452-.098.648a1.44 1.44 0 01-.285.509 1.275 1.275 0 01-.46.332 1.555 1.555 0 01-.62.117m-.023.749c.346 0 .667-.058.96-.174a2.16 2.16 0 001.26-1.315c.12-.322.18-.69.18-1.101 0-.16-.017-.266-.05-.32-.035-.053-.1-.08-.195-.08h-3.854c.008-.365.058-.684.15-.954.091-.271.217-.497.377-.678.16-.181.35-.316.571-.406.222-.09.47-.134.743-.134.256 0 .476.029.66.089.186.058.344.122.478.19.134.07.245.134.335.193a.439.439 0 00.231.088.226.226 0 00.195-.097l.285-.372a1.963 1.963 0 00-.45-.397 2.786 2.786 0 00-.565-.277 3.577 3.577 0 00-.62-.163 3.808 3.808 0 00-.635-.054c-.399 0-.768.067-1.105.203a2.42 2.42 0 00-.875.594 2.722 2.722 0 00-.575.969 3.945 3.945 0 00-.206 1.326c0 .404.063.782.186 1.132.124.35.303.655.535.912.233.257.516.459.852.606.335.146.713.22 1.132.22M261.78 58.04a.225.225 0 00-.212-.126.404.404 0 00-.194.062 4.313 4.313 0 01-.266.14 2.386 2.386 0 01-.375.143 1.768 1.768 0 01-.514.066c-.17 0-.326-.022-.462-.066a1.112 1.112 0 01-.352-.18.733.733 0 01-.301-.594c0-.149.043-.273.13-.372.085-.099.198-.185.34-.257.141-.072.3-.136.48-.192.178-.055.363-.114.551-.177a7.57 7.57 0 00.552-.209c.18-.076.34-.17.48-.285.141-.115.254-.255.34-.42a1.3 1.3 0 00.128-.598c0-.267-.047-.514-.142-.74a1.633 1.633 0 00-.423-.589 2.053 2.053 0 00-.687-.392 2.822 2.822 0 00-.937-.142c-.404 0-.77.065-1.097.197a2.77 2.77 0 00-.835.506l.24.39a.362.362 0 00.11.113c.041.026.096.04.165.04.068 0 .14-.027.217-.08.076-.053.168-.113.277-.177.108-.065.24-.124.394-.178.155-.053.348-.08.581-.08a1.6 1.6 0 01.52.077c.148.052.272.121.371.21.1.087.173.188.221.302a.951.951 0 01.071.366c0 .16-.043.292-.129.397a1.081 1.081 0 01-.34.27 2.776 2.776 0 01-.483.193c-.18.055-.365.113-.555.174a6.223 6.223 0 00-.553.21 1.94 1.94 0 00-.484.294c-.14.118-.255.264-.34.437a1.41 1.41 0 00-.129.632 1.55 1.55 0 00.538 1.175c.175.154.39.276.646.368.255.091.547.137.874.137.381 0 .724-.06 1.026-.18.303-.12.565-.285.787-.494zM110.848 40.797h3.544v-.932h-4.653v8.192h1.109zM116.587 39.865h-1.018v5.791h1.018zm.228 7.608a.647.647 0 00-.059-.277.78.78 0 00-.392-.386.698.698 0 00-.557 0 .766.766 0 00-.386.386.677.677 0 00-.058.277.725.725 0 00.215.518.766.766 0 00.229.157.698.698 0 00.557 0 .78.78 0 00.232-.157.797.797 0 00.16-.234.692.692 0 00.059-.284M121 44.935c-.332 0-.622-.076-.872-.229a2.495 2.495 0 01-.689-.646v-2.8c.183-.252.386-.429.609-.532.223-.103.472-.154.746-.154.541 0 .957.192 1.246.577.29.385.435.933.435 1.646 0 .377-.034.701-.1.972-.067.27-.163.493-.289.666-.126.173-.28.3-.463.38-.183.08-.391.12-.623.12m-2.584-5.07v8.42h1.023v-3.464c.241.278.516.502.827.672.31.17.666.254 1.065.254.336 0 .639-.063.909-.189.271-.125.501-.313.692-.563.19-.249.338-.558.44-.926.103-.368.154-.792.154-1.272 0-.426-.056-.824-.172-1.192a2.85 2.85 0 00-.494-.954 2.301 2.301 0 00-.789-.635 2.327 2.327 0 00-1.049-.23c-.373 0-.69.071-.951.216a2.153 2.153 0 00-.683.606l-.052-.526c-.03-.145-.118-.217-.263-.217zM128.745 48.148l-1.332-1.475a.541.541 0 00-.157-.123.451.451 0 00-.198-.037h-.605l.846 1.384a.565.565 0 00.175.191c.062.04.155.06.277.06zm-1.657-3.15c-.492 0-.879-.142-1.16-.426-.284-.284-.458-.677-.527-1.18h3.15c0 .236-.033.452-.097.65-.065.195-.16.364-.286.507a1.28 1.28 0 01-.46.332 1.558 1.558 0 01-.62.117m-.024.75c.347 0 .667-.059.961-.175a2.165 2.165 0 001.26-1.315c.12-.322.181-.689.181-1.1 0-.16-.018-.267-.052-.32-.034-.054-.1-.08-.194-.08h-3.853c.007-.366.057-.685.15-.955.09-.27.215-.497.375-.678.161-.18.351-.316.573-.406.22-.089.468-.134.742-.134.256 0 .476.03.661.09.185.057.344.121.477.19.133.07.245.133.335.192a.436.436 0 00.231.088.223.223 0 00.194-.097l.286-.372a1.928 1.928 0 00-.452-.397 2.797 2.797 0 00-.562-.277 3.805 3.805 0 00-1.255-.217c-.4 0-.77.068-1.106.203a2.429 2.429 0 00-.875.594 2.736 2.736 0 00-.575.97 3.97 3.97 0 00-.206 1.325c0 .404.063.782.187 1.132.123.351.302.655.534.912.232.257.517.46.851.606.335.146.713.22 1.132.22M130.763 39.865v5.79h.583c.11 0 .188-.02.229-.062.042-.042.07-.115.085-.217l.07-.904c.197.404.442.72.734.947.29.226.634.34 1.027.34a1.52 1.52 0 00.793-.206l-.13-.76c-.028-.096-.086-.143-.178-.143a.893.893 0 00-.246.054 1.561 1.561 0 01-.463.054c-.355 0-.65-.102-.89-.31-.237-.204-.436-.503-.596-.896v-3.687zM136.766 40.488a1.947 1.947 0 01.911.208c.132.067.258.148.378.244a3.5 3.5 0 01.352.325v1.195c-.47 0-.868-.03-1.196-.089a3.283 3.283 0 01-.8-.233c-.206-.096-.355-.209-.45-.339a.733.733 0 01-.138-.437c0-.153.024-.286.074-.397a.757.757 0 01.2-.273.795.795 0 01.297-.155c.114-.033.238-.049.372-.049m2.64-.623h-.451a.532.532 0 00-.24.046c-.061.03-.101.095-.12.194l-.114.537a6.693 6.693 0 00-.446-.368 2.42 2.42 0 00-.969-.443 2.945 2.945 0 00-.604-.057c-.224 0-.435.031-.631.094a1.424 1.424 0 00-.511.284 1.342 1.342 0 00-.347.479 1.69 1.69 0 00-.128.686c0 .229.063.45.189.662.126.212.329.401.608.565.28.164.647.299 1.1.404.455.105 1.008.158 1.665.158v.455c0 .452-.097.794-.29 1.026-.192.233-.477.348-.854.348-.248 0-.457-.031-.626-.094a2.375 2.375 0 01-.44-.211 9.111 9.111 0 01-.321-.212.456.456 0 00-.265-.094.304.304 0 00-.18.054.403.403 0 00-.123.134l-.183.326c.32.309.665.54 1.035.692.37.152.779.229 1.229.229.323 0 .61-.054.863-.161a1.764 1.764 0 001.023-1.137c.088-.271.132-.568.132-.892zM142.081 39.865h-1.018v8.42h1.018zM146.191 44.998c-.49 0-.878-.142-1.16-.426-.282-.284-.457-.677-.527-1.18h3.152c0 .236-.033.452-.098.648-.064.197-.16.366-.286.51a1.27 1.27 0 01-.46.331 1.555 1.555 0 01-.62.117m-.023.75c.346 0 .667-.059.96-.175a2.16 2.16 0 001.26-1.315c.12-.322.18-.689.18-1.1 0-.16-.016-.267-.051-.32-.034-.054-.098-.08-.194-.08h-3.853a3.22 3.22 0 01.149-.955c.092-.27.218-.497.378-.678.16-.18.35-.316.57-.406.221-.089.47-.134.743-.134.255 0 .476.03.66.09.185.057.344.121.478.19.133.07.245.133.334.192.09.06.168.088.232.088.084 0 .15-.032.195-.097l.285-.372a1.984 1.984 0 00-.45-.397 2.786 2.786 0 00-.564-.277 3.6 3.6 0 00-.62-.163 3.817 3.817 0 00-.635-.054c-.4 0-.768.067-1.105.203a2.42 2.42 0 00-.875.594 2.722 2.722 0 00-.575.97 3.945 3.945 0 00-.206 1.325c0 .404.062.782.186 1.132.124.351.302.655.534.912.233.257.517.46.853.606.335.146.712.22 1.132.22M153.183 44.7a.225.225 0 00-.212-.124.404.404 0 00-.194.062 4.313 4.313 0 01-.266.14 2.41 2.41 0 01-.374.143 1.78 1.78 0 01-.515.066c-.171 0-.326-.022-.462-.066a1.112 1.112 0 01-.352-.18.733.733 0 01-.301-.594c0-.15.043-.273.129-.372.086-.1.199-.185.34-.257.142-.072.302-.136.48-.192.18-.055.364-.114.552-.177a7.57 7.57 0 00.552-.21c.179-.075.339-.17.48-.284.14-.115.254-.255.34-.42.086-.166.129-.366.129-.598 0-.267-.048-.514-.143-.74a1.621 1.621 0 00-.423-.59 2.048 2.048 0 00-.686-.391 2.822 2.822 0 00-.937-.142 2.91 2.91 0 00-1.098.197 2.77 2.77 0 00-.835.506l.24.389a.362.362 0 00.109.114c.042.026.097.04.166.04.068 0 .14-.027.217-.08.076-.053.168-.113.277-.177.109-.065.24-.124.394-.178.155-.053.348-.08.58-.08a1.6 1.6 0 01.52.077c.149.052.273.12.373.209a.837.837 0 01.22.303.933.933 0 01.07.366c0 .16-.042.292-.128.397a1.07 1.07 0 01-.34.269c-.14.074-.301.139-.483.194-.181.055-.365.113-.554.174a6.128 6.128 0 00-.554.209 1.958 1.958 0 00-.484.295c-.14.118-.254.264-.34.437a1.41 1.41 0 00-.13.632 1.568 1.568 0 00.538 1.175c.176.154.39.276.647.368.255.09.547.137.875.137.38 0 .723-.06 1.025-.18a2.44 2.44 0 00.787-.494zM159.139 40.608c.33 0 .622.076.87.23.25.151.48.366.69.645v2.801c-.186.251-.391.428-.614.53-.223.1-.47.15-.741.15-.541 0-.956-.192-1.246-.578-.29-.384-.434-.933-.434-1.646 0-.377.033-.7.097-.969.065-.268.16-.49.286-.663.125-.173.28-.3.463-.38.183-.08.393-.12.629-.12m1.972-.743c-.145 0-.237.07-.275.211l-.091.703a3.073 3.073 0 00-.85-.723 2.177 2.177 0 00-1.094-.27c-.331 0-.632.063-.902.19a1.88 1.88 0 00-.693.563c-.19.248-.337.557-.44.926-.103.37-.154.795-.154 1.275 0 .427.057.824.172 1.192.114.368.279.687.494.958.215.27.477.483.786.637.308.154.659.231 1.052.231.354 0 .657-.06.909-.18s.476-.288.675-.506v3.213h1.017v-8.42zM165.74 44.998c-.49 0-.878-.142-1.16-.426-.282-.284-.457-.677-.526-1.18h3.15c0 .236-.032.452-.098.648a1.44 1.44 0 01-.285.51 1.275 1.275 0 01-.46.331 1.555 1.555 0 01-.62.117m-.023.75c.346 0 .667-.059.96-.175a2.16 2.16 0 001.26-1.315c.12-.322.18-.689.18-1.1 0-.16-.017-.267-.05-.32-.035-.054-.1-.08-.195-.08h-3.854c.008-.366.058-.685.15-.955.091-.27.217-.497.377-.678.16-.18.35-.316.571-.406.222-.089.47-.134.743-.134.256 0 .476.03.66.09.186.057.344.121.478.19.134.07.245.133.335.192a.439.439 0 00.231.088.226.226 0 00.195-.097l.285-.372a1.963 1.963 0 00-.45-.397 2.786 2.786 0 00-.565-.277 3.577 3.577 0 00-.62-.163 3.808 3.808 0 00-.635-.054c-.399 0-.768.067-1.105.203a2.42 2.42 0 00-.875.594 2.722 2.722 0 00-.575.97 3.945 3.945 0 00-.206 1.325c0 .404.063.782.186 1.132.124.351.303.655.535.912.233.257.516.46.852.606.335.146.713.22 1.132.22M178.425 39.865h-1.114v3.727h-4.413v-3.727h-1.115v8.19h1.115v-3.651h4.413v3.652h1.114zM181.878 40.488a1.967 1.967 0 011.289.452c.12.095.237.203.352.325v1.195a6.86 6.86 0 01-1.195-.089 3.306 3.306 0 01-.8-.233c-.206-.096-.356-.209-.449-.339a.734.734 0 01-.14-.437c0-.153.025-.286.075-.397a.754.754 0 01.199-.273.8.8 0 01.298-.155c.114-.033.238-.049.371-.049m2.642-.623h-.453a.537.537 0 00-.24.046c-.06.03-.1.095-.12.194l-.114.537a6.686 6.686 0 00-.445-.368 2.392 2.392 0 00-.969-.443 2.959 2.959 0 00-.604-.057c-.224 0-.435.031-.632.094a1.352 1.352 0 00-.857.763 1.673 1.673 0 00-.128.686c0 .229.063.45.189.662.125.212.328.401.608.565.28.164.646.299 1.101.404.453.105 1.007.158 1.663.158v.455c0 .452-.096.794-.288 1.026-.193.233-.478.348-.855.348-.248 0-.457-.031-.626-.094a2.375 2.375 0 01-.44-.211 9.111 9.111 0 01-.321-.212.458.458 0 00-.265-.094.304.304 0 00-.18.054.403.403 0 00-.123.134l-.184.326c.321.309.665.54 1.036.692.369.152.779.229 1.228.229.324 0 .612-.054.863-.161.252-.106.463-.255.635-.445.172-.191.301-.421.389-.692.088-.271.132-.568.132-.892zM186.942 45.656v-3.692c0-.44.101-.778.303-1.018.202-.24.507-.36.915-.36.297 0 .577.07.84.21.263.142.505.339.726.59v4.27h1.018v-5.791h-.607c-.144 0-.236.07-.274.212l-.08.623a3.159 3.159 0 00-.846-.671 2.211 2.211 0 00-1.074-.255c-.317 0-.596.052-.838.157a1.658 1.658 0 00-.608.443 1.9 1.9 0 00-.37.691 3.085 3.085 0 00-.123.899v3.692zM194.174 39.774c-.458 0-.81.127-1.055.383-.246.255-.37.623-.37 1.103v3.544h-.696a.228.228 0 00-.154.054c-.042.037-.063.093-.063.169v.406l.948.12.235 1.789a.217.217 0 00.074.14.234.234 0 00.16.055h.515v-1.995h1.658v-.738h-1.658v-3.475c0-.244.059-.425.177-.543a.621.621 0 01.458-.178c.106 0 .199.015.277.043.078.029.145.06.203.095.057.034.105.066.145.094a.193.193 0 00.106.043c.054 0 .1-.033.143-.097l.297-.486a1.88 1.88 0 00-.634-.386 2.142 2.142 0 00-.766-.14M198.998 44.998c-.49 0-.878-.142-1.16-.426-.282-.284-.457-.677-.526-1.18h3.15c0 .236-.032.452-.098.648a1.44 1.44 0 01-.285.51 1.275 1.275 0 01-.46.331 1.555 1.555 0 01-.62.117m-.023.75c.346 0 .667-.059.96-.175a2.16 2.16 0 001.26-1.315c.12-.322.18-.689.18-1.1 0-.16-.017-.267-.05-.32-.035-.054-.1-.08-.195-.08h-3.854c.008-.366.058-.685.15-.955.091-.27.217-.497.377-.678.16-.18.35-.316.571-.406.222-.089.47-.134.743-.134.256 0 .476.03.66.09.186.057.344.121.478.19.134.07.245.133.335.192a.439.439 0 00.231.088.226.226 0 00.195-.097l.285-.372a1.963 1.963 0 00-.45-.397 2.786 2.786 0 00-.565-.277 3.577 3.577 0 00-.62-.163 3.808 3.808 0 00-.635-.054c-.399 0-.768.067-1.105.203a2.42 2.42 0 00-.875.594 2.722 2.722 0 00-.575.97 3.945 3.945 0 00-.206 1.325c0 .404.063.782.186 1.132.124.351.303.655.535.912.233.257.516.46.852.606.335.146.713.22 1.132.22M202.41 43.723h2.824v-.863h-2.824zM207.592 48.02a.556.556 0 00.163-.152l4.745-6.174a3.698 3.698 0 00-.023.29 6.298 6.298 0 00-.006.27v5.802h.972v-8.19h-.56a.476.476 0 00-.221.045.55.55 0 00-.174.154l-4.74 6.168a7.025 7.025 0 00.025-.532v-5.836h-.972v8.191h.57a.495.495 0 00.22-.037M217.628 40.58c.571 0 .998.191 1.28.574.282.383.423.917.423 1.603 0 .69-.141 1.227-.423 1.612-.282.385-.709.578-1.28.578-.29 0-.542-.05-.755-.149a1.404 1.404 0 01-.534-.429 1.872 1.872 0 01-.32-.688 3.678 3.678 0 01-.106-.924c0-.343.035-.65.106-.92a1.84 1.84 0 01.32-.683c.143-.185.32-.327.534-.426.213-.099.465-.149.755-.149m0 5.168c.423 0 .805-.07 1.146-.21.34-.143.63-.343.869-.602.238-.259.421-.572.548-.94.128-.368.192-.779.192-1.232 0-.457-.064-.869-.192-1.235a2.648 2.648 0 00-.548-.937 2.393 2.393 0 00-.869-.598 3.011 3.011 0 00-1.146-.208c-.424 0-.806.07-1.146.208a2.416 2.416 0 00-.873.598c-.24.26-.424.571-.554.937a3.7 3.7 0 00-.195 1.235c0 .453.066.864.195 1.232.13.368.314.681.554.94.241.26.532.46.873.601.34.14.722.211 1.146.211M221.64 39.865v5.79h.584c.11 0 .187-.02.229-.062.042-.042.07-.115.085-.217l.069-.904c.198.404.443.72.734.947.292.226.634.34 1.027.34a1.556 1.556 0 00.794-.206l-.131-.76c-.028-.096-.086-.143-.178-.143a.888.888 0 00-.245.054 1.573 1.573 0 01-.464.054c-.354 0-.65-.102-.89-.31-.237-.204-.436-.503-.595-.896v-3.687zM226.248 39.865v5.79h.605c.145 0 .237-.07.275-.211l.074-.594c.214.263.453.478.718.646.265.167.572.25.923.25.392 0 .71-.108.952-.325.242-.217.416-.511.522-.88a1.825 1.825 0 001.285 1.137c.184.046.372.069.562.069.305 0 .576-.05.814-.146.24-.097.441-.24.607-.425a1.92 1.92 0 00.38-.69c.088-.272.132-.583.132-.934v-3.687h-1.018v3.687c0 .454-.1.797-.298 1.032-.198.234-.485.35-.863.35-.167 0-.326-.028-.477-.087a1.145 1.145 0 01-.669-.692 1.664 1.664 0 01-.1-.603v-3.687h-1.018v3.687c0 .465-.093.812-.279 1.04-.188.229-.46.343-.818.343-.25 0-.485-.067-.7-.202a2.313 2.313 0 01-.59-.552v-4.316zM237.246 40.488a1.967 1.967 0 011.289.452c.12.095.237.203.352.325v1.195a6.86 6.86 0 01-1.195-.089 3.306 3.306 0 01-.8-.233c-.206-.096-.356-.209-.449-.339a.734.734 0 01-.14-.437c0-.153.025-.286.075-.397a.754.754 0 01.2-.273.8.8 0 01.297-.155c.114-.033.238-.049.371-.049m2.642-.623h-.453a.537.537 0 00-.24.046c-.06.03-.1.095-.12.194l-.114.537a6.686 6.686 0 00-.445-.368 2.392 2.392 0 00-.969-.443 2.959 2.959 0 00-.604-.057c-.224 0-.435.031-.632.094a1.352 1.352 0 00-.857.763 1.673 1.673 0 00-.128.686c0 .229.063.45.19.662.124.212.327.401.607.565.28.164.646.299 1.101.404.453.105 1.007.158 1.663.158v.455c0 .452-.096.794-.288 1.026-.193.233-.478.348-.855.348-.248 0-.457-.031-.626-.094a2.375 2.375 0 01-.44-.211 9.111 9.111 0 01-.32-.212.458.458 0 00-.266-.094.304.304 0 00-.18.054.403.403 0 00-.123.134l-.184.326c.321.309.665.54 1.036.692.37.152.78.229 1.228.229.324 0 .612-.054.863-.161.252-.106.463-.255.635-.445.172-.191.301-.421.39-.692.087-.271.131-.568.131-.892zM241.43 39.865v5.79h.606c.145 0 .237-.07.275-.211l.08-.63c.252.28.532.505.843.676.31.17.67.257 1.078.257.316 0 .596-.052.837-.157.242-.105.444-.253.606-.446.162-.193.285-.424.368-.695a3.01 3.01 0 00.126-.897v-3.687h-1.017v3.687c0 .438-.1.778-.3 1.02-.2.242-.506.363-.918.363-.301 0-.582-.072-.843-.217a2.77 2.77 0 01-.722-.588v-4.265zM249.89 40.608c.332 0 .623.076.872.23.25.151.48.366.69.645v2.801c-.187.251-.392.428-.615.53-.223.1-.47.15-.741.15-.541 0-.956-.192-1.246-.578-.29-.384-.434-.933-.434-1.646 0-.377.033-.7.097-.969.065-.268.16-.49.286-.663.125-.173.28-.3.463-.38.183-.08.393-.12.629-.12m1.972-.743c-.145 0-.237.07-.275.211l-.091.703a3.073 3.073 0 00-.85-.723 2.177 2.177 0 00-1.094-.27c-.331 0-.632.063-.902.19a1.88 1.88 0 00-.693.563c-.19.248-.337.557-.44.926-.103.37-.154.795-.154 1.275 0 .427.057.824.172 1.192.114.368.279.687.494.958.215.27.477.483.786.637.308.154.659.231 1.052.231.354 0 .657-.06.909-.18s.476-.288.675-.506v3.213h1.017v-8.42zM255.31 39.865h-1.018v5.791h1.018zm.228 7.608a.648.648 0 00-.06-.277.792.792 0 00-.392-.386.693.693 0 00-.279-.057c-.1 0-.193.019-.278.057a.766.766 0 00-.385.386.707.707 0 000 .561.716.716 0 00.156.234.766.766 0 00.229.157.674.674 0 00.278.057.693.693 0 00.279-.057.763.763 0 00.392-.391c.04-.09.06-.185.06-.284M259.419 44.998c-.491 0-.878-.142-1.16-.426-.282-.284-.457-.677-.526-1.18h3.15c0 .236-.032.452-.098.648a1.44 1.44 0 01-.285.51 1.275 1.275 0 01-.461.331 1.555 1.555 0 01-.62.117m-.022.75c.346 0 .667-.059.959-.175a2.16 2.16 0 001.261-1.315c.12-.322.18-.689.18-1.1 0-.16-.017-.267-.051-.32-.034-.054-.099-.08-.194-.08h-3.854c.008-.366.058-.685.15-.955.091-.27.217-.497.377-.678.16-.18.35-.316.571-.406.222-.089.469-.134.743-.134.256 0 .476.03.66.09.186.057.344.121.478.19.134.07.245.133.335.192a.439.439 0 00.231.088.226.226 0 00.195-.097l.285-.372a1.963 1.963 0 00-.451-.397 2.786 2.786 0 00-.564-.277 3.577 3.577 0 00-.62-.163 3.808 3.808 0 00-.635-.054c-.399 0-.768.067-1.105.203a2.42 2.42 0 00-.875.594 2.722 2.722 0 00-.575.97 3.945 3.945 0 00-.206 1.325c0 .404.063.782.186 1.132.124.351.303.655.535.912.233.257.516.46.852.606.335.146.713.22 1.132.22M122.015 90.516a841.31 841.31 0 00-1.396-4.142 69.444 69.444 0 01-1.395-4.63h5.493a245.282 245.282 0 01-1.263 4.674 402.78 402.78 0 01-1.175 4.098zm-5.317 5.715c.5.295 1.263.575 2.28.842 1.02.265 2.046.398 3.08.398 1.477 0 2.784-.214 3.92-.642 1.138-.43 1.869-1.101 2.193-2.016a145.923 145.923 0 001.728-5.361 380.686 380.686 0 001.862-6.312 1537.72 1537.72 0 001.816-6.424 825.973 825.973 0 001.549-5.603c-.353-.415-.885-.747-1.593-.997-.71-.251-1.551-.377-2.527-.377-.707 0-1.305.059-1.793.177s-.885.295-1.196.532a2.609 2.609 0 00-.754.93 8.156 8.156 0 00-.51 1.329l-.796 3.057h-8.02c-.234-.887-.472-1.802-.707-2.747-.237-.945-.473-1.86-.71-2.746a11.296 11.296 0 00-1.305-.377c-.46-.103-1.013-.155-1.663-.155-1.504 0-2.621.259-3.344.776-.724.516-1.084 1.232-1.084 2.148 0 .413.058.827.175 1.24.118.413.25.9.4 1.462.206.798.493 1.786.864 2.969.368 1.18.775 2.458 1.218 3.83.442 1.374.915 2.785 1.418 4.23l1.418 4.1a171.513 171.513 0 002.08 5.737M146.555 80.858c-1.3.444-2.48.893-3.543 1.35-1.063.459-1.98 1.013-2.746 1.663a6.817 6.817 0 00-1.794 2.326c-.43.9-.642 2-.642 3.3 0 2.51.966 4.518 2.9 6.025 1.935 1.506 4.645 2.259 8.13 2.259 1.269 0 2.45-.09 3.543-.266 1.093-.177 2.03-.45 2.814-.82.78-.37 1.394-.842 1.838-1.417.443-.576.665-1.248.665-2.016s-.177-1.425-.532-1.971a5.51 5.51 0 00-1.285-1.395c-.65.412-1.521.775-2.613 1.085-1.094.31-2.29.464-3.59.464-1.328 0-2.302-.184-2.923-.553-.62-.37-.93-.834-.93-1.395 0-.443.19-.806.577-1.085.382-.282.958-.54 1.726-.776l2.349-.753c2.775-.886 4.909-2.015 6.4-3.39 1.492-1.373 2.239-3.241 2.239-5.603 0-2.51-.99-4.54-2.97-6.091-1.977-1.551-4.888-2.326-8.726-2.326-1.36 0-2.621.11-3.788.333-1.167.22-2.185.546-3.057.974-.871.428-1.55.959-2.036 1.595-.488.634-.731 1.365-.731 2.193 0 .856.248 1.587.752 2.193.5.604 1.047 1.07 1.639 1.395.826-.65 1.838-1.211 3.034-1.684 1.196-.472 2.503-.71 3.92-.71 1.448 0 2.466.223 3.058.666.59.443.885.959.885 1.55 0 .59-.235 1.042-.708 1.352-.472.31-1.138.613-1.994.908zM182.218 97.028c.206-.326.39-.761.554-1.307a5.973 5.973 0 00.243-1.706c0-1.152-.243-1.971-.731-2.46-.488-.486-1.146-.73-1.972-.73h-9.303V85.82h9.703c.235-.325.434-.754.598-1.285a5.743 5.743 0 00.243-1.684c0-1.122-.243-1.926-.731-2.413-.488-.488-1.144-.731-1.971-.731h-7.754v-9.348c-.324-.088-.833-.177-1.527-.266a16.196 16.196 0 00-2.06-.133c-.681 0-1.28.052-1.794.155-.517.104-.952.289-1.307.554-.355.266-.621.635-.797 1.108-.177.47-.266 1.092-.266 1.86v19.27c0 1.27.368 2.274 1.107 3.013.739.738 1.742 1.108 3.013 1.108zM190.988 70.049c-1.27 0-2.274.369-3.013 1.108-.736.738-1.107 1.742-1.107 3.012v22.904c.326.058.843.139 1.55.243.71.103 1.39.155 2.04.155.678 0 1.276-.052 1.793-.155.517-.104.953-.288 1.308-.554.353-.266.619-.635.796-1.107.178-.474.267-1.094.267-1.861V76.296h10.144c.207-.326.4-.761.575-1.308a5.464 5.464 0 00.266-1.705c0-1.182-.25-2.016-.752-2.503-.503-.487-1.167-.731-1.994-.731zM233.603 70.36c-.326-.09-.835-.178-1.528-.267a16.17 16.17 0 00-2.058-.133c-.681 0-1.28.052-1.796.155-.517.103-.953.288-1.306.554-.355.266-.621.635-.798 1.108-.178.471-.266 1.091-.266 1.86v6.911h-8.506V70.36c-.324-.089-.833-.177-1.527-.266a16.196 16.196 0 00-2.06-.133c-.681 0-1.28.052-1.794.155-.517.103-.952.288-1.307.554-.355.266-.621.635-.797 1.108-.177.471-.266 1.091-.266 1.86v23.391c.324.058.84.14 1.55.243.708.103 1.387.155 2.037.155.679 0 1.277-.052 1.796-.155.515-.103.95-.288 1.306-.554.354-.265.62-.635.798-1.107.176-.473.264-1.093.264-1.86V86.66h8.506v10.367c.326.058.843.14 1.55.243.71.103 1.389.155 2.039.155.679 0 1.277-.052 1.794-.155.517-.103.952-.288 1.307-.554.355-.265.619-.635.797-1.107.177-.473.266-1.093.266-1.86zM263.683 71.112c-.413-.415-1.011-.73-1.794-.953-.783-.222-1.72-.332-2.812-.332a9.763 9.763 0 00-3.101.487c-.976.325-1.772 1.108-2.393 2.35l-4.386 8.947a74.83 74.83 0 00-1.196 2.592 71.241 71.241 0 00-1.151 2.813l-.267-.045a75.28 75.28 0 00.201-4.873c.014-1.654.021-3.278.021-4.873V70.36c-.326-.089-.819-.178-1.483-.266a14.863 14.863 0 00-1.973-.133c-.65 0-1.225.044-1.726.133-.503.088-.916.266-1.24.531-.326.266-.577.628-.754 1.086-.178.457-.266 1.056-.266 1.794v22.15c.414.59 1.049 1.033 1.905 1.33a8.374 8.374 0 002.746.442c1.092 0 2.134-.17 3.123-.509.989-.34 1.78-1.115 2.37-2.326l4.43-8.948c.444-.917.843-1.78 1.196-2.593a73.35 73.35 0 001.152-2.813l.221.045a89.056 89.056 0 00-.221 4.784c-.029 1.595-.043 3.19-.043 4.785v7.177c.324.088.818.176 1.483.265.666.088 1.321.133 1.971.133 1.3 0 2.29-.229 2.969-.687.679-.458 1.018-1.41 1.018-2.857z" fill="#ea6363"/><path d="M76.77 38.912c-.033-.031-.048-.041-.06-.055-.062-.083-.155-.154-.13-.276.004-.018.046-.028.07-.042.05.09.1.182.148.275.005.01-.008.03-.027.098m1.118 1.906c-.088-.037-.156-.093-.151-.198.002-.048.037-.062.078-.047.087.033.183.06.156.183-.006.025-.053.04-.083.062m5.51 47.964c.017-.06.06-.08.114-.067.063.013.152.023.11.119-.012.03-.085.05-.13.05-.055 0-.093-.04-.094-.102m3.863-31.937c-.02.032-.035.089-.055.09-.121.008-.078-.1-.096-.16-.008-.027.024-.095.034-.094.1.007.085.104.117.164m-4.224 12.83c.019.068.01.135-.05.144-.06.008-.085-.06-.075-.113.01-.052.039-.14.064-.142.067-.004.045.075.06.11m.072 1.034c-.03.032-.05.072-.072.074-.062.008-.105-.033-.11-.094-.004-.05.002-.12.078-.09.043.017.07.072.104.11m4.875-.885l-.037.12c-.032-.04-.072-.078-.092-.124-.01-.02.013-.072.036-.085.067-.038.088.008.093.089m-4.837 18.85c-.026.036-.047.095-.087.112-.115.048-.16-.042-.182-.13-.014-.06.035-.103.095-.102.074.002.135.037.174.12m2.11.7c-.236.058-.368.064-.467-.066-.01-.014.016-.081.037-.09.135-.047.22.063.43.157m-2.038-20.657c.038.095.07.18.032.272-.03.07-.071.134-.156.09-.055-.027-.051-.09-.02-.14.045-.074.094-.145.144-.222m1.32 20.463c-.357-.063-.357-.063-.545-.36.233.059.37.186.546.36m2.254 19.666c-.095.235-.095.235-.35.387.114-.158.18-.308.35-.387M81.78 72.838c.094-.13.025-.393.369-.427l-.37.427m6.95-6.175c-.115-.032-.18-.088-.184-.162a.428.428 0 01.233-.407c.065-.036.12.066.126.146.01.177-.092.3-.175.423m-4.964-.528c.114.255.05.536-.124.6a.143.143 0 01-.103-.01c-.06-.031-.064-.102-.04-.145.079-.15.172-.29.267-.445m15.159 36.638c.23-.001.283.14.305.297.019.129-.062.236-.173.249-.2.023-.237-.15-.26-.298-.016-.12.038-.217.128-.248m-10.341-35.73c.073.35.007.654-.326 1 .04-.441.224-.707.326-1m9.99 33.86c-.162-.006-.225-.262-.213-.276.123-.141-.013-.365.16-.474.02-.013.093.005.096.019.039.176.12.33.196.493.047.102-.106.245-.238.239m-11.26-29.091c-.022-.408.21-.73.314-1.096.065.417-.08.77-.314 1.096m-4.268-3.4c.19-.44.19-.44.555-.245.014.007.036.005.052-.001.068-.022.143-.057.16.054.014.08-.037.138-.1.182-.205.144-.414.092-.667.01m6.328 23.717c.926.196 1.502.937 2.196 1.472.534.412.91 1.024 1.384 1.522.172.18.323.365.438.58.188.352.49.62.699.95.193.305.48.569.53.96.106.123.359.167.23.434-.198-.1-.294-.231-.216-.448-.201-.03-.342-.154-.447-.314-.544-.836-1.23-1.56-1.863-2.324-.412-.497-.83-1.016-1.338-1.4-.538-.404-1.06-.842-1.636-1.194-.272-.166.115-.16.039-.255-.197-.087-.502.08-.597-.25-.023-.084.018-.135.097-.16.069.247.494.09.484.427m-2.696-18.451c-.013.053-.03.105-.038.159-.013.076-.033.167-.125.143-.094-.025-.04-.121-.031-.184.019-.131.124-.105.213-.103-.15-.412.093-.676.354-.936-.082.302-.041.639-.263.897-.02.022-.071.017-.11.024m-1.041 36.655c.019.234-.212.25-.314.378.024-.2.098-.355.325-.367.137-.472.388-.774.755-.881-.267.304-.417.672-.766.87m.626-20.567c-.177.01-.325.216-.56.095.182-.233.392-.035.563-.093-.062.142.18.195.1.342-.346-.022-.065-.23-.103-.344M75.828 37.589c-.088.17.05.283.12.4.306.527.626 1.046.94 1.568.115-.173-.113-.331-.037-.506.205.002.238.17.308.289.045.077.062.186-.033.246-.085.053-.176.019-.251-.045.2.44.46.846.719 1.253.04.063.08.126.118.189.114.189.598-.06.477.45-.063.267.35.373.436.655.079.259.279.479.403.727.279.562.52 1.14.826 1.693a9.68 9.68 0 01.68 1.567c.365 1.078.873 2.109 1.046 3.25.044.292.166.574.267.856.395 1.096.675 2.228.918 3.362.31 1.447.567 2.908.64 4.396.029.554.072 1.112.176 1.67.08.439.023.94-.01 1.41-.075 1.074-.147 2.149-.326 3.212a82.23 82.23 0 00-.31 2.04c-.057.408-.128.807-.27 1.2-.15.42-.232.865-.342 1.299-.268 1.059-.705 2.057-1.112 3.064-.282.696-.53 1.409-.837 2.09-.401.889-.79 1.784-1.2 2.67-.548 1.19-1.172 2.345-1.693 3.55-.151.35-.4.673-.583 1.018-.933 1.756-1.934 3.475-2.913 5.205-.153.27-.127.464.076.68.059.063.113.089.195.06.444-.151.843.095 1.222.22.55.18 1.117.303 1.672.459 1.01.283 2.054.443 3.043.806.472.173.974.199 1.457.323.178.045.362.056.52.162.03.02.065.057.096.055.666-.047 1.074.497 1.627.713.555.217 1.094.49 1.615.772.939.508 1.825 1.115 2.687 1.752.549.406 1.108.799 1.66 1.199a7.718 7.718 0 011.744 1.768c.418.58.768 1.209 1.233 1.754.116.135.384.165.406.356.036.314.315.447.424.695.164.37.388.679.393 1.155.006.528.33 1.054.53 1.575.095.244.08.404-.18.544-1.371.737-2.488 1.802-3.615 2.85-.99.92-1.978 1.842-2.942 2.787-.79.775-1.45 1.665-2.123 2.54-.802 1.04-1.658 2.037-2.422 3.108-.744 1.04-1.433 2.11-2.005 3.256-.365.732-.844 1.41-1.024 2.227a.688.688 0 00-.435.546c-.061.348-.443.448-.53.786-.053.215-.247.354-.137.653.105.285-.374.119-.431.358-.022.09-.093.197-.067.268.13.35-.081.629-.213.892-.481.96-.847 1.968-1.256 2.957-.424 1.026-.823 2.063-1.236 3.093a.421.421 0 00-.034.215c.037.353.08.709-.32.91-.025.014-.053.077-.042.097.172.31-.11.526-.16.789-.01.052-.046.107.009.153.066.054.14.05.21.015a.39.39 0 00.13-.102c.432-.556.87-1.105 1.058-1.81.07-.265.236-.492.412-.72.563-.73 1.027-1.526 1.485-2.324.232-.405.442-.827.71-1.206.61-.857 1.143-1.77 1.813-2.584 1.047-1.271 2.046-2.581 3.142-3.813.409-.46.75-.975 1.167-1.433a68.052 68.052 0 012.843-2.968c.773-.751 1.618-1.417 2.424-2.13.605-.532 1.313-.923 1.889-1.492.248-.245.583-.405.883-.596.394-.252.76-.534 1.119-.838.539-.457 1.142-.841 1.729-1.238.888-.6 1.806-1.156 2.67-1.787.378-.275.694-.665.675-1.205-.042-1.143-.066-2.283-.293-3.417a17.255 17.255 0 00-1.558-4.502c-.171-.334-.414-.646-.465-1.066-.028-.232-.255-.508-.448-.677-.393-.344-.587-.82-.926-1.185-.08-.087-.1-.308-.31-.265-.122.025-.173-.048-.174-.157-.001-.174-.01-.327-.236-.364-.058-.01-.144-.101-.147-.16-.03-.598-.656-.762-.89-1.217-.057-.111-.324.027-.465-.213-.12-.201-.374-.314-.383-.612-.008-.248-.368-.066-.426-.315-.06-.254-.296-.425-.496-.502-.29-.112-.42-.424-.74-.483-.166-.031-.07-.305-.261-.39-.527-.228-.94-.644-1.412-.96-.68-.452-1.47-.671-2.122-1.187-.466-.37-1.083-.594-1.67-.745-.355-.092-.684-.241-.998-.387-.492-.227-1-.347-1.516-.474-.233-.057-.432-.238-.67-.323-.182-.064-.362-.141-.547-.096-.406.098-.75-.098-1.098-.226-.321-.118-.305-.204-.107-.524.394-.638.87-1.212 1.325-1.805.699-.913 1.159-1.964 1.617-3.014.198-.455.302-.968.69-1.326l-.017.017c.07-.49.307-.901.605-1.283l-.013.016c.146-.38.28-.763.488-1.115.099-.167.204-.313.433-.228.413-.46.598-1.041.812-1.594a32.643 32.643 0 001.68-5.96c.066-.362.099-.731.14-1.098.006-.047-.03-.1-.044-.145-.216-.006-.133.259-.315.294-.201-.113-.244-.347-.206-.524.15-.702.183-1.417.292-2.123.03-.197.128-.242.295-.27.033.25.089.496.204.73.262-.124.188-.394.21-.582a11.79 11.79 0 00.047-2.702c-.077-.743-.105-1.491-.276-2.222-.017-.073-.031-.147-.048-.221-.068-.293-.22-.362-.481-.136l-.371-2.233c.2-.105.217.207.392.13.048-.15-.03-.287-.07-.43-.015-.05-.05-.116-.091-.131-.106-.037-.26.176-.328-.033-.074-.228-.103-.471-.146-.71-.01-.051.019-.097.053-.146.232-.344.199-.524-.163-.72-.14-.075-.161-.224-.098-.255.329-.16.156-.367.067-.551-.2-.411-.21-.892-.477-1.276.145-.393-.08-.725-.17-1.081-.131-.507-.36-.976-.544-1.462-.097-.253-.148-.522-.243-.776-.38-1.014-.844-1.99-1.308-2.97-.6-1.265-1.294-2.483-1.903-3.744-.327-.677-.706-1.327-1.215-1.885-.583-.638-1.08-1.342-1.605-2.024-.577-.747-1.276-1.376-1.935-2.041-.462-.465-.987-.866-1.474-1.307-1.104-1.002-2.37-1.784-3.588-2.63a28.366 28.366 0 00-3.08-1.88c-.263-.135-.518-.292-.923-.375.243.26.395.464.585.622 1.04.867 1.909 1.9 2.787 2.919a20.068 20.068 0 011.712 2.272c.324.507.725.978.932 1.556.035.099.158.212.054.309-.292.27-.004.374.132.524-.06-.097-.123-.21.01-.277.1-.05.19.052.2.135.026.19-.166.05-.225.128" fill="#f4bd4e"/><path d="M52.947 83.655c.06.03.156.054.144.132-.011.082-.104.073-.173.066-.05-.006-.114-.016-.113-.078 0-.08.057-.123.142-.12m-13.601 4.329c-.068-.008-.095-.046-.075-.105a.205.205 0 01.146-.138c.068-.018.103.022.1.08-.002.11-.091.137-.171.163m1.035-3.64c-.023-.12.054-.186.127-.25.03-.026.088.002.078.035a.303.303 0 01-.205.215m9.336-1.022c-.023.047-.027.066-.04.077-.066.066-.144.096-.234.047-.045-.025-.1-.085-.063-.112.049-.037.132-.032.2-.038.033-.002.067.012.137.026m10.198 2.086c-.237.06-.336-.12-.492-.127.185-.077.31.019.492.127m-7.258-1.625c-.12.057-.234.083-.344-.03-.015-.014-.014-.075 0-.085.118-.081.226-.03.328.039.01.007.007.032.016.076m1.464-.107c-.001.093-.093.08-.141.12-.056.046-.14.082-.174.008-.056-.117.069-.125.137-.155.059-.026.126-.036.178.027m9.38 3.623c.24.008.308.164.389.304-.147-.058-.291-.12-.388-.304m-21.48-1.311c.164.036.333-.09.49.032-.17-.04-.323.242-.49-.032m-.048.22c.006.35-.117.509-.372.584-.26.076-.486.233-.687.4-.194.163-.508.096-.637.382-.05.11-.238.06-.273-.018-.041-.095.002-.332.022-.334.248-.018.279-.194.374-.373.076-.145.353-.137.447-.338.022-.047.105-.055.14-.012.187.222.275.119.277-.098.002-.173.054-.212.215-.195.157.016.317.003.494.003m9.276-2.17c.01.112.017.24-.145.205-.338-.071-.658-.073-.957.129-.037.025-.106-.005-.16.002-.455.06-.911.089-1.37.176-1.381.263-2.75.568-4.088 1-.337.11-.65.042-1.013-.202.13-.105.365.104.424-.084.09-.292.336-.295.542-.364.466-.157.952-.265 1.415-.411.807-.255 1.63-.324 2.45-.452.158-.024.304.032.472-.018.444-.133.902-.231 1.37-.221.209.004.399.032.61-.074.135-.067.409-.097.458.203.219.042.3-.393.574-.166-.115.259-.338.29-.582.278m11.273 1.887c-.2.095-.362.033-.544-.083-.812-.521-1.714-.848-2.618-1.164-.354-.124-.74-.167-1.047-.407-.493.158-.885-.07-1.293-.323.26-.083.499-.112.742-.044.608.17 1.238.288 1.82.524.838.34 1.653.743 2.43 1.214.165.1.28.286.497.29.045.216.379.164.416.484-.183-.124-.325-.205-.446-.31-.055-.048-.005-.128.043-.181m-6.26-1.883c-.106.003-.216-.011-.317.01-.365.082-.725-.184-1.05-.082-.405.126-.38-.126-.466-.341.51-.062.992.04 1.477.059.33.01.332-.016.356.356.115-.103.163-.305.356-.287.136.012.12.167.172.265-.177.08-.357-.067-.528.02m-10.815-.091c-.053.118-.056.364-.22.29-.282-.125-.535.002-.803-.01.332-.158.654-.332 1.037-.265.017-.03.028-.077.052-.085a7.301 7.301 0 012.569-.42c-.062.039-.13.038-.195.054a7.84 7.84 0 00-.85.263c-.304.116-.686-.115-.927.23-.03.042-.161.043-.247-.02-.126-.091-.273-.06-.416-.037m16.203 2.072c.107.19.324.2.488.295.09.052.208.068.203.209.359.03.6.246.823.494-.308-.111-.597-.252-.813-.505-.281.007-.47-.192-.69-.315-.078-.043-.017-.123-.011-.183-.347.073-.347.073-.703-.227.27.033.459.22.703.232m3.3 2.628c-.345-.41-.52-.895-.816-1.311-.887-1.247-2.09-2.093-3.437-2.753a56.412 56.412 0 00-2.815-1.302c-.347-.147-.755-.145-1.128-.24-.398-.1-.81-.15-1.207-.21-.818-.125-1.618-.358-2.442-.418-.34-.024-.662-.118-1.005-.125-.766-.016-1.526-.007-2.283.129-.277.049-.597-.123-.822-.05-.273.09-.536.163-.814.16-1.624-.017-3.201.305-4.765.682-.855.207-1.692.5-2.521.844.076-.127.059-.294.289-.334.498-.088.842-.52 1.332-.641.02-.005.03-.051.059-.1-.554.039-1.056.238-1.524.462-.455.219-.907.469-1.362.682-1.114.519-1.98 1.338-2.836 2.173-.457.446-.95.867-1.317 1.402-.461.672-.82 1.398-1.175 2.128-.16.328-.358.636-.525.96-.315.615-.454 1.292-.668 1.94-.471 1.43-.672 2.912-.774 4.41-.021.312-.027.629-.137.93-.031.086-.002.177.074.242.25.027.25-.273.438-.334.117.075.035.232.13.325.09-.07.15-.19.279-.197.298-.018.525-.155.749-.352.144-.126.389-.251.447.122.014.093.082.087.157.093.417.03.605-.112.776-.492.182-.404.41-.786.623-1.176.55-1.013 1.338-1.835 2.106-2.681.74-.815 1.614-1.46 2.474-2.124.299-.231.668-.372.97-.59.389-.282.825-.475 1.214-.744a31.403 31.403 0 011.906-1.208c.453-.266.982-.347 1.4-.667.028-.02.075-.04.1-.03.42.18.743-.165 1.125-.208a6.17 6.17 0 001.147-.272c.498-.158 1.02-.192 1.52-.326.126-.034.302-.002.217-.24-.014-.037.159-.082.167-.046.064.29.259.159.398.12.525-.144 1.068-.173 1.613-.24-.051-.14-.18-.073-.28-.142.268-.051.504-.108.743-.138.149-.02.318-.106.448.062a.153.153 0 00.195.044c.314-.19.64-.016.959-.034.34-.02.67-.165 1.01-.104.234.04.274-.222.5-.231.456-.018.888.06 1.332.115.476.059.966.029 1.447.004.178-.01.323-.017.494.065.188.092.412.114.623.156.398.079.785.194 1.164.343.243.096.485.214.765.112.175-.064.193.174.346.202.385.069.71.273 1.046.476.467.282 1.024.39 1.494.686.098.062.238.04.378-.01" fill="#ea6363"/><path d="M76.399 57.158l-.037.09c-.061-.027-.055-.079-.043-.129.009-.038.026-.075.039-.112.014.05.028.1.04.151m-1.262-2.387c.156.062.07.2.107.296.028.073-.028.161-.106.16-.133-.005-.121-.116-.097-.206.023-.085.063-.166.096-.25m.253.905c.103-.043.23-.198.277.05.062.33.142.657.172.99.065.723.128 1.446-.045 2.17-.085.352-.042.395.31.296.317-.088.517.176.778.204.343-.617.367-1.305.546-1.949.02-.073.025-.147.11-.174l-.017.017c.028-.083-.003-.19.113-.237.098-.039.158-.045.008-.149-.273-.189-.268-.298-.051-.552.06-.072.112-.132.134-.23.059-.253-.368-.194-.277-.445.064-.176.29-.334.03-.527.18-.32-.125-.594-.084-.929.039-.326-.104-.69-.226-1.016-.321-.854-.672-1.698-1.017-2.543a.848.848 0 00-.224-.319c-.406-.365-.506-.369-.75.13-.102.208-.42.071-.435.363-.015.281-.286.185-.44.27-.266.143-.51.32-.601.69-.277 1.131-.495 2.268-.53 3.433-.01.335.027.674.063 1.008.02.18.13.258.323.185.397-.152.665-.107 1.109.18.164-.29.156-.639.325-.926.065-.109.138-.202.243-.188.064.008.113.136.169.21zM85.643 75.81c.077.173-.174.337.012.577.364-.6.667-1.18.885-1.803-.233.1-.354.276-.447.517-.103.264-.213.545-.463.726z" fill="#f4bd4e"/><path d="M77.076 59.34c.248.05.332-.073.382-.179.152-.32.272-.655.322-1.008a.415.415 0 00-.03-.215.175.175 0 00-.182-.104c-.097.01-.116.074-.106.158.01.09.026.176.01.274-.065.374-.068.764-.396 1.074M88.956 56.584c-.011.248-.033.468-.026.687.003.092.081.172.193.135.076-.025.132-.104.098-.177-.092-.2-.073-.444-.265-.645M85.055 77.076l.06.27c.275-.328.335-.454.394-.84-.26.124-.18.507-.47.587a.25.25 0 00.016-.017M77.047 55.689c-.051-.038-.132-.033-.138.012-.024.184-.027.37-.042.629.28-.225.268-.43.167-.654l.013.013M89.158 64.659c.232-.177.353-.388.233-.722-.236.222-.017.54-.232.723z" fill="#f4bd4e"/><path d="M89.159 64.66c.067.15-.021.285-.044.426-.013.075-.041.16.048.183.103.028.167-.044.203-.14.082-.226-.082-.339-.208-.47M77.537 57.263a.727.727 0 00.126.411c.149-.412.149-.412-.143-.394l.016-.017" fill="#f4bd4e"/><path d="M51.107 82.05c-.054-.023-.097-.05-.144-.06-.08-.016-.169-.068-.233.031-.007.009.004.042.014.047a.4.4 0 00.304.018c.016-.005.03-.018.06-.036M53.124 82.278c-.173-.154-.173-.154-.573-.101l.582.094zM47.818 82.152c-.046-.024-.061-.038-.075-.037-.085.005-.172.004-.255.024-.05.01-.044.063.006.068.085.008.17 0 .257-.005.013 0 .025-.018.067-.05M53.133 82.271c.186.008.37.093.615.008-.243-.074-.431-.075-.621-.003l.006-.005M52.036 82.075c-.12-.053-.2-.078-.287-.039.06.153.157.11.287.039M44.367 82.6c-.075-.087-.155.012-.23-.01.075-.002.148.099.23.01" fill="#ea6363"/></g></svg>