<?xml version="1.0" encoding="utf-8"?>
<!-- Generator: Adobe Illustrator 20.0.0, SVG Export Plug-In . SVG Version: 6.00 Build 0)  -->
<svg version="1.1" id="Calque_1" xmlns="http://www.w3.org/2000/svg" xmlns:xlink="http://www.w3.org/1999/xlink" x="0px" y="0px"
	 viewBox="0 0 50 50" style="enable-background:new 0 0 50 50;" xml:space="preserve">
<style type="text/css">
	.st0{fill:#EB5B54;}
</style>
<path class="st0" d="M49.1,4.1c0.2-0.4,0-0.9-0.4-1.1l0,0c-1.1-0.6-3.4,0.1-4.4,1c-0.3,0.3-0.7,0.3-1.1,0.3
	c-8.9-1.5-14.3,3.2-17.2,9.1c-0.5,1.1-1.4,1.9-2.5,1.9c-2.6,0-14.1,0-14.1,0c-3.2,0-5.8,2.6-5.8,5.8v1.5c0,1.6,1.3,2.9,2.9,2.9h0.1
	c1.6,0,2.9-1.3,2.9-2.9v-3.7c0-0.4,0.3-0.7,0.7-0.7h0c0.4,0,0.7,0.3,0.7,0.7v19.4c-1.9-0.9-3.6-2.1-5-3.4c-1.2-1.1-3-1-4.1,0.1
	c-1.1,1.2-1,3,0.1,4.1c5.5,5.1,13.9,8.1,23.1,8.1c9.2,0,17.6-2.9,23.1-8.1c1.2-1.1,1.2-2.9,0.1-4.1c-1.1-1.2-2.9-1.2-4.1-0.1
	c-1.5,1.4-3.4,2.7-5.5,3.6V15.3v0c0-0.8,0.6-1.4,1.4-1.4h0c0.8,0,1.4,0.6,1.4,1.4v1c0,0.3,0.1,0.7,0.2,1l0.5,0.9
	c0.5,0.9,1.4,1.5,2.4,1.5h0c0.7,0,1.4-0.4,1.6-1.1l2.2-5.6c0.2-0.5,0.3-1,0.2-1.5c-0.1-0.9-0.3-1.8-0.7-2.6
	c-0.2-0.5-0.6-1.4-0.4-1.8L49.1,4.1z M24.8,41.4c-3.3,0-6.5-0.5-9.4-1.3l0.9-3.7c0.1-0.5,0.4-1,0.8-1.4l1.1-1.1
	c0.8-0.8,1.3-1.9,1.3-3.1v0c0-0.6,0.5-1.1,1.1-1.1h9.4c0.8,0,1.5,0.6,1.7,1.4l2.1,9.1C31,41,27.9,41.4,24.8,41.4z"/>
</svg>
